<svg width="130" height="124" viewBox="0 0 130 124" fill="none" xmlns="http://www.w3.org/2000/svg">
<path d="M62.4 -0.800049C43.7632 -0.800049 28.6 20.76 28.6 47.2644C28.6 60.9565 32.6689 73.286 39.1575 82.0343C38.9129 83.3476 38.9606 84.6986 39.2969 85.9914C39.6333 87.2841 40.2502 88.487 41.1037 89.5146C41.9573 90.5421 43.0266 91.3692 44.2357 91.937C45.4449 92.5048 46.7642 92.7994 48.1 92.7999C50.5135 92.7999 52.8281 91.8412 54.5347 90.1346C56.2413 88.428 57.2 86.1134 57.2 83.7C57.2 81.2865 56.2413 78.9719 54.5347 77.2653C52.8281 75.5587 50.5135 74.5999 48.1 74.5999C47.6047 74.6037 47.1105 74.6478 46.6223 74.732C41.9733 67.8068 39 57.9898 39 47.2644C39 26.8466 49.7172 9.59995 62.4 9.59995C73.1094 9.59995 82.3918 21.9174 85.0282 38.0374C88.7253 39.0983 92.4084 40.5333 96.0172 42.2675C94.2544 18.1031 79.8512 -0.800049 62.4 -0.800049ZM58.5 38.2C56.0866 38.2 53.7719 39.1587 52.0654 40.8653C50.3588 42.5719 49.4 44.8865 49.4 47.2999C49.4 49.7134 50.3588 52.028 52.0654 53.7346C53.7719 55.4412 56.0866 56.3999 58.5 56.3999C60.2011 56.399 61.8679 55.9213 63.3112 55.021C64.7546 54.1208 65.9167 52.8339 66.6656 51.3066C75.115 50.7774 84.8799 53.3843 93.8946 58.7867C111.731 69.4805 121.43 88.1799 115.07 99.6199C112.98 103.379 109.214 106.083 104.178 107.43C96.9264 109.37 88.034 108.383 79.2746 104.86C76.4952 107.445 73.4393 109.871 70.1035 112.102C78.7563 116.473 87.9073 118.79 96.3625 118.79C100.029 118.79 103.567 118.359 106.869 117.475C114.687 115.382 120.668 110.954 124.16 104.673C133.479 87.9052 122.533 63.8315 99.2418 49.8695C88.1594 43.2228 75.8824 40.1599 65.0914 41.0437C64.243 40.1475 63.2211 39.4333 62.088 38.9444C60.9549 38.4555 59.7341 38.2022 58.5 38.2ZM23.8164 54.6429C5.40584 68.8675 -2.49065 89.6784 5.84495 104.673C9.33675 110.954 15.3178 115.382 23.136 117.475C26.4406 118.359 29.9714 118.79 33.6426 118.79C43.5226 118.79 54.3661 115.653 64.2383 109.735C75.2827 103.114 83.449 94.2136 88.0801 84.9035C92.633 84.4075 96.2 80.5826 96.2 75.8999C96.2 70.882 92.118 66.7999 87.1 66.7999C82.082 66.7999 78 70.882 78 75.8999C78 77.3045 78.3434 78.6212 78.9141 79.8101C75.1599 87.5445 68.155 95.258 58.891 100.813C47.7214 107.511 35.3591 109.986 25.8223 107.43C20.7887 106.083 17.0252 103.379 14.9348 99.6199C9.9064 90.5719 14.9404 77.001 26.0762 66.4242C25.0076 62.6802 24.2428 58.7379 23.8164 54.6429Z" fill="black"/>
</svg>
